<?xml version="1.0" encoding="utf-8"?>
<!-- Generator: Adobe Illustrator 22.1.0, SVG Export Plug-In . SVG Version: 6.00 Build 0)  -->
<svg version="1.1" id="Layer_1" xmlns="http://www.w3.org/2000/svg" xmlns:xlink="http://www.w3.org/1999/xlink" x="0px" y="0px"
	 viewBox="0 0 194 30" style="enable-background:new 0 0 194 30;" xml:space="preserve">
<style type="text/css">
	.st0{fill:#ffffff;opacity:.7}
</style>
<g>
	<path class="st0" d="M102.1,9.3c0.2,0,0.3-0.1,0.4-0.1c0,0,0.1,0,0.1-0.1l0,0c0.1-0.1,0.2-0.3,0.2-0.5c0-0.2-0.1-0.3-0.1-0.4
		c0,0,0-0.1-0.1-0.1l0,0c-0.1-0.1-0.3-0.2-0.5-0.2H95c-0.2,0-0.3,0.1-0.4,0.1c0,0-0.1,0-0.1,0.1l0,0c-0.1,0.1-0.2,0.3-0.2,0.5v11.8
		c0,0.2,0.1,0.3,0.1,0.4c0,0,0,0.1,0.1,0.1l0,0c0.1,0.1,0.3,0.2,0.5,0.2h7.1c0.2,0,0.3-0.1,0.4-0.1c0,0,0.1,0,0.1-0.1l0,0
		c0.1-0.1,0.2-0.3,0.2-0.5c0-0.2-0.1-0.3-0.1-0.4c0,0,0-0.1-0.1-0.1l0,0c-0.1-0.1-0.3-0.2-0.5-0.2h-6.3v-4.4h4.7
		c0.2,0,0.3-0.1,0.4-0.1c0,0,0.1,0,0.1-0.1l0,0c0.1-0.1,0.2-0.3,0.2-0.5c0-0.2-0.1-0.3-0.1-0.4c0,0,0-0.1-0.1-0.1l0,0
		c-0.1-0.1-0.3-0.2-0.5-0.2h-4.7V9.3H102.1z"/>
	<path class="st0" d="M90.4,19.9l-5.2-5.6l5-5.2c0.1-0.1,0.2-0.3,0.2-0.5c0-0.2-0.1-0.3-0.1-0.4c0,0,0-0.1-0.1-0.1l0,0
		c-0.1-0.1-0.3-0.2-0.5-0.2c-0.2,0-0.3,0.1-0.4,0.1c0,0-0.1,0-0.1,0.1l-6.4,6.9V8.6c0-0.2-0.1-0.3-0.1-0.4c0,0,0-0.1-0.1-0.1l0,0
		c-0.1-0.1-0.3-0.2-0.5-0.2c-0.2,0-0.3,0.1-0.4,0.1c0,0-0.1,0-0.1,0.1l-0.1,0v0.1c0,0.1,0,0.1,0,0.1c0,0.1,0,0.1,0,0.3v11.7
		c0,0.2,0.1,0.3,0.1,0.4c0,0,0,0.1,0.1,0.1l0,0c0.1,0.1,0.3,0.2,0.5,0.2c0.1,0,0.3-0.1,0.4-0.2c0.1-0.1,0.2-0.3,0.2-0.5v-3.4
		l1.4-1.5l5.1,5.5c0.1,0.1,0.3,0.2,0.5,0.2c0.2,0,0.3-0.1,0.4-0.1c0,0,0.1,0,0.1-0.1l0,0c0.1-0.1,0.2-0.3,0.2-0.5
		c0-0.2-0.1-0.3-0.1-0.4C90.5,20,90.5,19.9,90.4,19.9z"/>
	<path class="st0" d="M115.4,11.6c0-1-0.4-1.8-1.2-2.6c-0.8-0.7-1.7-1.1-2.7-1.1h-4.1c-0.2,0-0.3,0.1-0.4,0.1c0,0-0.1,0-0.1,0.1l0,0
		c-0.1,0.1-0.2,0.3-0.2,0.5v11.7c0,0.2,0.1,0.3,0.1,0.4c0,0,0,0.1,0.1,0.1l0,0c0.1,0.1,0.3,0.2,0.5,0.2c0.2,0,0.3-0.1,0.4-0.1
		c0,0,0.1,0,0.1-0.1l0,0c0.1-0.1,0.2-0.3,0.2-0.5v-5.2h2.7l2.7,5.6c0.1,0.3,0.4,0.4,0.6,0.4c0.1,0,0.2,0,0.3-0.1
		c0.1-0.1,0.3-0.2,0.3-0.4c0.1-0.1,0-0.2,0-0.3c0,0,0-0.1,0-0.1l-2.4-5.1c0.9-0.2,1.6-0.6,2.1-1.2C115.1,13.3,115.4,12.6,115.4,11.6
		z M113.9,11.5c0,0.5-0.2,1.1-0.7,1.6c-0.4,0.4-1,0.7-1.7,0.7h-3.4V9.3h3.3c0.7,0,1.2,0.2,1.8,0.7C113.7,10.4,113.9,10.9,113.9,11.5
		z"/>
	<path class="st0" d="M73,8.3c0-0.1,0-0.1-0.1-0.1V8h-0.2c-0.1-0.1-0.2-0.1-0.2-0.1h-0.3c-0.1,0-0.2,0-0.3,0.1h-0.1v0.2L66.9,20
		c-0.1,0.2-0.1,0.3,0,0.6c0.1,0.2,0.2,0.3,0.4,0.4c0.1,0.1,0.3,0.1,0.3,0.1c0.3,0,0.5-0.1,0.6-0.4l1.1-2.6h6.2l1.1,2.6
		c0.1,0.3,0.3,0.4,0.6,0.4c0.1,0,0.2,0,0.3-0.1c0.2-0.1,0.3-0.2,0.4-0.4c0.1-0.2,0.1-0.3,0-0.5L73,8.3z M74.9,16.7h-5.1l2.6-6.2
		L74.9,16.7z"/>
	<path class="st0" d="M62.5,8c-0.3-0.1-0.6,0-0.8,0.3l-5.2,8.5l-5.1-8.6c-0.2-0.3-0.5-0.4-0.8-0.3C50.2,8,50,8.3,50,8.6v11.8
		c0,0.2,0.1,0.3,0.1,0.4c0,0,0,0.1,0.1,0.1l0.1,0.1l0.1,0c0,0,0.1,0,0.1,0c0.1,0,0.2,0.1,0.3,0.1c0.2,0,0.3-0.1,0.4-0.1
		c0,0,0.1,0,0.1-0.1l0,0c0.1-0.1,0.2-0.3,0.2-0.5v-9l4.4,7.3v0.2h1.3v-0.2l4.4-7.4v9.3c0,0.2,0.1,0.3,0.1,0.4c0,0,0,0.1,0.1,0.1l0,0
		c0.1,0.1,0.3,0.2,0.5,0.2c0.2,0,0.3-0.1,0.4-0.1c0,0,0.1,0,0.1-0.1l0,0c0.1-0.1,0.2-0.3,0.2-0.5V8.6C63,8.3,62.8,8,62.5,8z"/>
	<path class="st0" d="M14.6,10.7L3.3,3.1C2.6,2.7,1.8,2.6,1.1,3S0,4.1,0,4.9v17.8h0v0.4c0,0.6,0.5,1.1,1.1,1.1
		c0.6,0,1.1-0.5,1.1-1.1v-0.8c0,0,0,0,0,0V5.1l11.2,7.5c0.3,0.2,0.4,0.4,0.4,0.7v9c0,0,0,0,0,0v0.8c0,0.6,0.5,1.1,1.1,1.1
		c0.6,0,1.1-0.5,1.1-1.1v-0.4h0v-9.4C16,12.2,15.5,11.2,14.6,10.7z"/>
	<path class="st0" d="M34.1,3c-0.7-0.4-1.5-0.3-2.2,0.1l-11.4,7.6c-0.9,0.6-1.4,1.5-1.4,2.6v9c0,0,0,0,0,0v0.8
		c0,0.6,0.5,1.1,1.1,1.1c0.6,0,1.1-0.5,1.1-1.1v-0.4h0v-9.4c0-0.3,0.2-0.6,0.4-0.7L33,5.1v17.2c0,0,0,0,0,0v0.8
		c0,0.6,0.5,1.1,1.1,1.1c0.6,0,1.1-0.5,1.1-1.1v-0.4h0V4.9C35.2,4.1,34.8,3.4,34.1,3z"/>
	<path class="st0" d="M179.3,11.6c-2.3,0-3.9,1.6-3.9,4.3c0,2.6,1.5,4.3,3.9,4.3c2.4,0,3.9-1.6,3.9-4.3
		C183.2,13.2,181.7,11.6,179.3,11.6z M179.3,18.8c-1.3,0-2.2-1-2.2-2.9c0-1.8,0.9-2.9,2.2-2.9c1.3,0,2.2,1,2.2,2.9
		C181.5,17.7,180.7,18.8,179.3,18.8z"/>
	<path class="st0" d="M190.6,11.8v1.4h0c-0.5-1-1.5-1.5-2.6-1.5c-2.1,0-3.5,1.6-3.5,4.2c0,2.6,1.4,4.2,3.4,4.2
		c1.2,0,2.1-0.6,2.6-1.5h0v1.4c0,1.1-0.8,1.9-2.1,1.9c-1,0-1.7-0.5-2-1.1h-1.7c0.2,1.4,1.6,2.5,3.6,2.5c2.3,0,3.9-1.3,3.9-3.2v-8.1
		H190.6z M188.3,18.6c-1.3,0-2.1-1-2.1-2.8c0-1.7,0.8-2.8,2.1-2.8c1.3,0,2.2,1.1,2.2,2.8C190.5,17.6,189.7,18.6,188.3,18.6z"/>
	<path class="st0" d="M167.8,14.1L167.8,14.1c1.1-0.2,2-1.3,2-2.5c0-1.7-1.3-2.8-3.3-2.8H162V20h4.5c2.4,0,3.8-1.2,3.8-3.2
		C170.4,15.3,169.4,14.2,167.8,14.1z M163.8,10.2h2.3c1.3,0,2,0.6,2,1.6c0,1.1-0.8,1.7-2.4,1.7h-2V10.2z M166.2,18.6h-2.4v-3.7h2.3
		c1.7,0,2.5,0.6,2.5,1.8S167.8,18.6,166.2,18.6z"/>
	<rect x="172.1" y="8.7" class="st0" width="1.7" height="11.3"/>
	<rect x="138" class="st0" width="1" height="30"/>
</g>
</svg>
